<svg version="1.1" viewBox="0.0 0.0 135.58005249343833 135.58005249343833" fill="none" stroke="none" stroke-linecap="square" stroke-miterlimit="10" xmlns:xlink="http://www.w3.org/1999/xlink" xmlns="http://www.w3.org/2000/svg"><clipPath id="p.0"><path d="m0 0l135.58005 0l0 135.58005l-135.58005 0l0 -135.58005z" clip-rule="nonzero"/></clipPath><g clip-path="url(#p.0)"><path fill="#000000" fill-opacity="0.0" d="m0 0l135.58005 0l0 135.58005l-135.58005 0z" fill-rule="evenodd"/><path fill="#000000" fill-opacity="0.0" d="m11.017885 67.97696l0 0c0 -31.31063 25.38228 -56.692913 56.692917 -56.692913l0 0c15.035896 0 29.455956 5.972986 40.087944 16.604969c10.631981 10.631985 16.604965 25.052048 16.604965 40.087944l0 0c0 31.31063 -25.382278 56.692917 -56.69291 56.692917l0 0c-31.310635 0 -56.692917 -25.382286 -56.692917 -56.692917z" fill-rule="evenodd"/><path stroke="#ffffff" stroke-width="16.0" stroke-linejoin="round" stroke-linecap="butt" d="m11.017885 67.97696l0 0c0 -31.31063 25.38228 -56.692913 56.692917 -56.692913l0 0c15.035896 0 29.455956 5.972986 40.087944 16.604969c10.631981 10.631985 16.604965 25.052048 16.604965 40.087944l0 0c0 31.31063 -25.382278 56.692917 -56.69291 56.692917l0 0c-31.310635 0 -56.692917 -25.382286 -56.692917 -56.692917z" fill-rule="evenodd"/><path fill="#000000" fill-opacity="0.0" d="m67.7108 124.669876l0 -57.102364" fill-rule="evenodd"/><path stroke="#ffffff" stroke-width="16.0" stroke-linejoin="round" stroke-linecap="butt" d="m67.7108 124.669876l0 -57.102364" fill-rule="evenodd"/><path fill="#000000" fill-opacity="0.0" d="m80.93869 68.56462l41.511818 0" fill-rule="evenodd"/><path stroke="#ffffff" stroke-width="16.0" stroke-linejoin="round" stroke-linecap="butt" d="m80.93869 68.56462l41.511818 0" fill-rule="evenodd"/><path fill="#000000" fill-opacity="0.0" d="m38.191605 68.54652l37.51181 0" fill-rule="evenodd"/><path stroke="#ffffff" stroke-width="16.0" stroke-linejoin="round" stroke-linecap="butt" d="m38.191605 68.54652l37.51181 0" fill-rule="evenodd"/><path fill="#000000" fill-opacity="0.0" d="m67.7108 55.40073l0 -41.763783" fill-rule="evenodd"/><path stroke="#ffffff" stroke-width="16.0" stroke-linejoin="round" stroke-linecap="butt" d="m67.7108 55.40073l0 -41.763783" fill-rule="evenodd"/></g></svg>